<svg t="1585038434184" class="icon" viewBox="0 0 1024 1024" version="1.1" xmlns="http://www.w3.org/2000/svg" p-id="791" width="200" height="200"><path d="M512 507.38a30 30 0 0 1-30-30V62a30 30 0 0 1 60 0v415.38a30 30 0 0 1-30 30z" p-id="792"></path><path d="M512 992C259.7 992 54.44 786.74 54.44 534.44c0-155.4 78.96-298.98 211.26-384a30 30 0 1 1 32.46 50.46c-115.08 73.92-183.72 198.6-183.72 333.54A398.04 398.04 0 0 0 512 932a398.04 398.04 0 0 0 397.56-397.56c0-134.88-68.7-259.56-183.72-333.54a30 30 0 1 1 32.46-50.46c132.24 85.02 211.26 228.6 211.26 384C969.56 786.74 764.3 992 512 992z" p-id="793"></path></svg>