<svg t="1583908509083" class="icon" viewBox="0 0 1024 1024" version="1.1" xmlns="http://www.w3.org/2000/svg" p-id="890" width="200" height="200"><path d="M512 238.93333333c241.31291413 0 436.90666667 280.86857173 436.90666667 280.86857174s-195.59375253 265.2647616-436.90666667 265.2647616-436.90666667-265.2647616-436.90666667-265.2647616 195.59375253-280.86857173 436.90666667-280.86857174m0-62.4152384c-270.78851093 0-479.38023573 295.05243413-488.11836907 307.6135008a62.4308416 62.4308416 0 0 0 0.98304 72.71375254C33.61840747 568.71984747 242.27254827 847.48190507 512 847.48190507s478.38159253-278.7620576 487.15093333-290.6365568a62.4308416 62.4308416 0 0 0 0.98304-72.71375254C991.38023573 471.57052907 782.78851093 176.51809493 512 176.51809493z" fill="" p-id="891"></path><path d="M401.4001984 328.17152a15.60380907 15.60380907 0 0 1-5.89824-30.0529376 347.96495253 347.96495253 0 0 1 37.38672747-12.88874667 15.60380907 15.60380907 0 1 1 8.4416608 30.03733334c-11.26595093 3.15196907-22.7035424 7.09973333-34.04751254 11.73406506a15.33854507 15.33854507 0 0 1-5.88263573 1.17028587zM156.0458976 533.95456a15.60380907 15.60380907 0 0 1-12.77952-24.52918827c2.60583573-3.74491413 64.88064-92.39015573 160.70363413-160.25112426a15.6350176 15.6350176 0 0 1 18.05360747 25.4810208c-91.40711573 64.7089984-152.5272384 151.73144427-153.13578667 152.58965333a15.58820587 15.58820587 0 0 1-12.84193493 6.7096384zM512 390.8364192a128.96548587 128.96548587 0 1 1 0 257.93097173 128.96548587 128.96548587 0 0 1 0-257.93097173m0-31.2076192c-88.3175616 0-160.17310507 71.8399392-160.17310507 160.17310507S423.6824384 679.97500907 512 679.97500907 672.17310507 608.11946667 672.17310507 519.80190507 600.3175616 359.6288 512 359.6288z" fill="" p-id="892"></path><path d="M512 519.80190507m-48.9959616 0a48.9959616 48.9959616 0 1 0 97.9919232 0 48.9959616 48.9959616 0 1 0-97.9919232 0Z" fill="" p-id="893"></path></svg>