<svg t="1583908526890" class="icon" viewBox="0 0 1024 1024" version="1.1" xmlns="http://www.w3.org/2000/svg" p-id="1014" width="200" height="200"><path d="M1000.87694222 417.80337777c10.62456889-15.93571555 7.08266667-37.18371555-7.08266667-49.57866666-15.93571555-12.39495111-37.18371555-8.85304889-49.57866666 7.08266666-1.77152 1.77038222-198.31466667 233.72913778-432.04608 233.72913778-226.64533333 0-432.04494222-233.72913778-433.81532444-235.49952-12.39608889-14.16533333-35.41333333-15.93571555-49.57980445-3.54190222-14.16533333 12.39495111-15.93571555 35.41333333-3.54190222 49.57980444 3.54190222 5.31114667 46.03790222 53.11943111 113.32266667 106.24l-90.30542223 93.84618667c-14.16533333 14.16533333-12.39381333 37.18371555 1.77152 49.57866667 3.54190222 7.08266667 12.39495111 10.62456889 21.24913778 10.62456888 8.85191111 0 17.70609778-3.54190222 24.78876445-10.62456888l97.3869511-100.92771556c46.03790222 31.87256889 100.92885333 61.97475555 161.1320889 83.22161778l-37.18485334 125.71875555c-5.31114667 19.47648 5.31342222 38.95409778 24.78990222 44.26638223h10.62343112c15.93571555 0 30.10218667-10.62456889 33.6429511-26.56028445l37.18371556-125.71875555c28.33066667 5.31228445 58.43285333 8.85418667 88.53390222 8.85418666s60.20323555-3.54190222 88.53504-8.85418666l37.18257778 123.94837333c3.54304 15.93571555 19.47875555 26.55914667 33.64408889 26.55914667 3.54190222 0 7.08266667 0 8.85418667-1.77038223 19.47648-5.31342222 30.10104889-24.78876445 24.78990222-44.26638222L667.98819555 649.76213333c60.20437333-21.24913778 115.09418667-51.35018667 161.1320889-83.22161778l95.61656888 99.15733333c7.08266667 7.08266667 15.93571555 10.62456889 24.78876445 10.62456889 8.85304889 0 17.70723555-3.54190222 24.78876444-10.62343111 14.16533333-14.16647111 14.16533333-35.41333333 1.77152-49.57980445l-90.30542222-93.84504888c72.59932445-53.12170667 115.0976-104.47075555 115.0976-104.47075556z" p-id="1015"></path></svg>